<?xml version="1.0" encoding="UTF-8"?>
<svg xmlns="http://www.w3.org/2000/svg" viewBox="0 0 556.28 334.54">
  <defs>
    <style>
      .cls-1 {
        stroke-width: 0px;
      }

      .cls-1, .cls-2 {
        fill: #231815;
      }

      .cls-3, .cls-4, .cls-5, .cls-6, .cls-2, .cls-7, .cls-8, .cls-9 {
        stroke: #231815;
        stroke-miterlimit: 10;
      }

      .cls-3, .cls-9 {
        fill: #168dcb;
      }

      .cls-4 {
        fill: none;
      }

      .cls-4, .cls-5, .cls-6, .cls-2, .cls-7, .cls-8, .cls-9 {
        stroke-width: 2px;
      }

      .cls-5 {
        fill: #fff;
      }

      .cls-6 {
        fill: #1385bd;
      }

      .cls-7 {
        fill: #f9d8c6;
      }

      .cls-8 {
        fill: #c8d2e3;
      }
    </style>
  </defs>
  <g id="layer1">
    <path class="cls-5" d="m379.95,20.43l1.56,9.35s.6,3.36,2.76,5.63c1.71,1.79,1.69,4.56-.02,6.35-1.6,1.67-2.73,3.65-2.11,5.62,0,0-.06,10.2-7.02,16.07l-2.27.49"/>
    <path class="cls-5" d="m365.05,31.39s6.91,5.66,10.06,0"/>
    <path class="cls-1" d="m381.78,31.39s23.15-34.26-16.73-29.54c-36.66,4.33-33.7,22.09-32.99,24.93l.11.38c3.97-1.36,7.7,1.4,7.7,1.4,0,0,6.91,10.37,32.68-15.71,0,0,3.77-.31,7.86,10.37l1.27,7.62"/>
    <path class="cls-4" d="m332.17,27.17s-.05-.13-.11-.38"/>
    <path class="cls-4" d="m344.66,60.29s.04-.06.02-.09c-5.54-11.1-4.19-13.34-3.82-13.7.03-.03.03-.09-.02-.11-1.37-.69-16.97-8.78-12.16-16.29,1.41-2.21,3-3.38,4.55-3.91"/>
    <path class="cls-4" d="m345.11,62.79c-2.05-1.92,1.5-4.15,1.99-4.44"/>
    <path class="cls-4" d="m347.15,58.32s9,1.14,29.5,6.63"/>
    <path class="cls-4" d="m325.72,153.45s-.04.1-.06.15l-11.94,23.88s7.86-.94,65.37,0h12.46l-2.37-56.38"/>
    <path class="cls-4" d="m327.37,111.19c1.39,4.75,2.93,12.17,2.65,21.03"/>
    <path class="cls-4" d="m389.19,68.18c-5.49-2.7-12.18-2.96-12.18-2.96l-.35-.27c.16.04.33.09.49.13.08.02.07.14-.02.14l-31.08-1.79s-.02,0-.03,0c-.38-.2-.68-.42-.91-.63v.73s-21.33,7.42-22.28,13.08c-.25,1.53-.19,4.33.04,7.62"/>
    <path class="cls-4" d="m395.94,75.63c-.87-3.56-3.61-5.9-6.75-7.45"/>
    <path class="cls-9" d="m389.19,69.68c-6-1.88-11.99,3.71-11.99,3.71l-7.12,30.66s-6.36,17.91,6.93,18.86l34.03-5.03-1.57-13.83-20.9,2.61s5.64-13.15,7.54-26.88c.21-1.54.14-2.91-.16-4.14"/>
    <path class="cls-9" d="m396.12,76.58c-2.04-4.13-4.49-6.14-6.93-6.9"/>
    <path class="cls-6" d="m330.02,132.22c-.21,6.46-1.38,13.69-4.3,21.22l-.06.15-12.69-15.31c-6.49-7.82-7.74-18.74-3.2-27.83l13.11-26.24h0c.63,8.89,2.47,21.3,2.47,21.3,0,0,.96,2.07,2.02,5.68l-.11-.37-3.12,8.32c-.91,2.43-.55,5.16.97,7.27,1.17,1.62,2.79,3.75,4.89,6.26"/>
    <path class="cls-9" d="m329.92,134.84c-.37,5.93-1.59,12.44-4.2,19.18l-.06.15.06-.15s-.04.1-.06.15l-11.94,23.88s7.86-.94,65.37,0h12.46l-2.37-56.38.25-.04-12.43,1.84c-13.29-.94-6.93-18.86-6.93-18.86l7.12-30.66s5.99-5.59,11.99-3.71v-1.49c-5.49-2.7-12.18-2.96-12.18-2.96h.13s-30.31-1.74-30.31-1.74c-.62-.04-1.3.6-.18.14,0,0,0,0,0,0l-1.51-.09s-21.34,7.42-22.28,13.08c-.25,1.53-.19,4.33.04,7.62.63,8.89,2.47,21.3,2.47,21.3,0,0,.96,2.07,2.02,5.68,1.39,4.75,2.93,12.17,2.65,21.03"/>
    <path class="cls-9" d="m329.99,132.86c-.02.67-.05,1.35-.1,2.04"/>
    <line class="cls-4" x1="392.66" y1="121.2" x2="390.44" y2="146.56"/>
    <path class="cls-4" d="m390.54,101.57c-.15.8-.71,4.95,3.74,4.37"/>
    <line class="cls-7" x1="409.83" y1="105.25" x2="417.56" y2="104.72"/>
    <line class="cls-7" x1="410.76" y1="113.13" x2="415.07" y2="113.13"/>
    <path class="cls-9" d="m334.44,177.94l9.9,10.84,15.6,114.08,31.46-2.83-5.49-122.09c-25.76-.09-41.69-.14-51.53-.18"/>
    <line class="cls-4" x1="334.42" y1="177.88" x2="334.58" y2="178.06"/>
    <line class="cls-4" x1="334.2" y1="177.64" x2="334.42" y2="177.88"/>
    <line class="cls-4" x1="351.9" y1="243.13" x2="351.57" y2="244.19"/>
    <path class="cls-9" d="m385.89,300.66s9.71,10.15,21.36,10.01c0,0,8.46,5.2,0,8.97s-42.09,1.57-42.09,1.57l-2.28-18.48,14.85,8.52,8.16-10.59Z"/>
    <path class="cls-9" d="m324.88,309.72s6.91,12.23,18.23,14.96c0,0,6.92,7.12-2.21,8.69s-41.18-8.85-41.18-8.85l2.34-18.47,12.3,11.92,10.52-8.26Z"/>
    <path class="cls-3" d="m.47,201.2H0"/>
    <path class="cls-3" d="m.74,201.2h-.27"/>
    <path class="cls-9" d="m360.46,302.74l-.38.03-15.6-114.08-9.9-10.84-.2-.09-15.92-.05.11.13c.61,6.25,7.16,70.1-7.94,102.51l-11.56,24.19,31.73,6.13,20.77-66.48"/>
    <line class="cls-9" x1="305.8" y1="305.84" x2="305.21" y2="309.11"/>
    <line class="cls-9" x1="321.07" y1="308.78" x2="320.21" y2="313.39"/>
    <line class="cls-9" x1="367.36" y1="302.19" x2="367.36" y2="305.3"/>
    <path class="cls-9" d="m382.19,300.86c-.13.01.83,3.52.83,3.52"/>
  </g>
  <g id="layer2">
    <path class="cls-4" d="m414.73,34.41l-2.85,4.03c-.16.22-.28.46-.35.72-.23.85-1.34,3.28-6.67,5.75-1.24.57-1.74,2.07-1.12,3.28l2.36,4.65c.2.4.29.85.25,1.3l-.89,10.63s-.47,6.6,12.26,14.61c0,0,7.07,3.77,5.66,10.84"/>
    <line class="cls-4" x1="445.17" y1="52.75" x2="445.29" y2="52.53"/>
    <line class="cls-4" x1="445.07" y1="52.93" x2="445.17" y2="52.75"/>
    <path class="cls-4" d="m430.57,61.94s1.72,7.24,7.82,1.23"/>
    <path class="cls-2" d="m447.07,36.8c-4,10.06,2.75,18.02,2.75,18.02-1.83-.27-3.4-1.18-4.75-2.49-6.07-5.9-7.61-19.93-7.61-19.93l-3.56,8.17-3.32-11.1-3.59,10.69-3.43-15.29-3.07,9.01-.89-6.34-4.87,6.88v-.54c-1.17-1.87-6.82-12.55,15.85-13.41,24.85-.94,35.69,25.41,35.69,25.41,0,0,6.38,29.91-26.51,29.59,0,0-3.87,3.16-.94-12.72l-.43.44c1.03-1.02,2.19-2.42,3.49-4.3l3.19-5.94"/>
    <path class="cls-4" d="m414.91,34.15s-.07-.1-.18-.28"/>
    <path class="cls-4" d="m422.27,46.38s-5.66,3.94-7.54-4.23"/>
    <line class="cls-4" x1="439.76" y1="75.46" x2="433.58" y2="90.23"/>
    <path class="cls-4" d="m435.34,86.04s15.33,10.61-2.25,34.05c-2.12,2.83-2.09,6.73.04,9.54,1.8,2.37,5.71,5.11,8.4,11.01.64,1.41-.19,123.14,28.09,175.13"/>
    <rect class="cls-2" x="444.55" y="36.2" width="4.95" height="8.54"/>
    <path class="cls-4" d="m422.27,83.81s-22.11,14.9-29.18,13.63"/>
    <path class="cls-5" d="m425.65,102.43c-3.98-.79-7.81,1.62-8.56,5.38,0,0,0,.11.01.31.08,1.92-2.85,10.47-3.36,9.24-.59-1.4-19.04-17.34-19.04-17.34,0,0-.02.04-.05.12l.05-.12-3.05-5.88c-.37-.7-1.05-1.21-1.84-1.28-.6-.06-1.04.12-.43,1.05,1.23,1.86,1.68,3.82,1.68,3.82,0,0-8.07-3.51-9.87-2.7s.29,1.55.39,1.57,6.68,2.25,6.68,2.25c0,0-10.55-3.09-9.9-2.17,0,0-1.57.58-.29,1s9.53,3.06,9.53,3.06c0,0-9.4-2.99-10.87-1.34,0,0-.21-.5,0,.71l9.69,2.33s-7.02-1.75-8.59-.34,7.59,2.02,7.59,2.02l27.19,24.96c6.8,6.24,12.06,2.44,13.15-6.73l4.95-12.5-.2.52.2-.52c.68-3.41-1.86-6.79-5.68-7.55"/>
    <path class="cls-4" d="m415.51,106.33c0-4.3,4.56-7.77,10.19-7.77"/>
    <path class="cls-4" d="m433.58,109.08c0-5.82-3.53-10.53-7.89-10.53"/>
    <path class="cls-4" d="m466.27,45.86s39.8,16.26,40.43,86.29c.63,70.03,48.4,180.47,48.4,180.47,0,0-39.6,41.94-85.48,3.15,0,0-21.37,7.09-32.94,0s-25.47,0-25.47,0"/>
    <path class="cls-4" d="m457.7,71.02s2.88,26.93-16.17,69.62"/>
    <path class="cls-8" d="m416.27,102.91c-7.62-4.52-17.52-1.69-19.71-1.29l5.99,4.68,7.35-.92.1.91.26.3,4.33-.3.91.03c0-1.31.43-2.55,1.18-3.64"/>
    <path class="cls-8" d="m468.86,316.01c-3.89,1.17-21.91,6.07-32.19-.23-11.57-7.09-25.47,0-25.47,0l-.55-1.01c-1.1-1.61-2.97-2.75-2.97-2.75-11.65.14-21.36-10.01-21.36-10.01l-.73-.07,6.24-.56-5.49-122.09h-.75s0-.46,0-.46h6.4l-1.39-33.1.28,2.18,2.22-25.36v-.61s8.9-1.31,8.9-1.31l1.21-.18,9.42,8.65c6.8,6.24,12.06,2.44,13.15-6.73l3.9-9.85h.57c1.84,0,3.33-1.53,3.33-3.43.41.6,2.39,1.53,4.33,3.43l-.22.41c-1.19,2.24-2.71,4.63-4.62,7.17-2.12,2.83-2.09,6.73.04,9.54,1.8,2.37,5.71,5.11,8.4,11.01.64,1.41-.19,123.14,28.09,175.13"/>
  </g>
  <g id="layer3">
    <path class="cls-5" d="m399.38,27.21l-2.24,9.21s-.74,3.21.27,6.11c.84,2.4-.41,5.05-2.73,6.1-2.01.91-3.68,2.25-3.88,4.22,0,0-4.06,9.36-12.77,12.02l-2.28-.44"/>
    <path class="cls-5" d="m381.38,31.44s4.14,7.92,9.25,3.95"/>
    <path class="cls-1" d="m396.77,38.01s34.74-22.41-3.78-33.74c-35.41-10.41-39.67,7.08-40.13,9.98l-.05.4c4.18.3,6.54,4.31,6.54,4.31,0,0,2.29,12.25,36.23-1.62,0,0,3.59,1.19,3.15,12.62l-1.82,7.51"/>
    <path class="cls-4" d="m352.81,14.64s.01-.14.05-.4"/>
    <path class="cls-4" d="m351.28,50.01s1.44-13.99,1.93-14.18c.05-.02.06-.07.03-.11-.99-1.17-12.16-14.74-4.79-19.76,2.17-1.48,4.09-1.93,5.72-1.81"/>
    <path class="cls-4" d="m345.04,62.58c-2.05-1.92,1.5-4.15,1.99-4.44"/>
    <path class="cls-4" d="m347.08,58.11s9,1.14,29.5,6.63"/>
    <path class="cls-4" d="m325.65,153.24s-.04.1-.06.15l-11.94,23.88s7.86-.94,65.37,0h12.46l-2.37-56.38"/>
    <path class="cls-4" d="m327.29,110.98c1.39,4.75,2.93,12.17,2.65,21.03"/>
    <path class="cls-4" d="m389.12,67.97c-5.49-2.7-12.18-2.96-12.18-2.96l-.35-.27c.16.04.33.09.49.13.08.02.07.14-.02.14l-31.08-1.79s-.02,0-.03,0c-.38-.2-.68-.42-.91-.63v.73s-21.33,7.42-22.28,13.08c-.25,1.53-.19,4.33.04,7.62"/>
    <path class="cls-4" d="m395.87,75.42c-.87-3.56-3.61-5.9-6.75-7.45"/>
    <path class="cls-9" d="m389.12,69.47c-6-1.88-11.99,3.71-11.99,3.71l-7.12,30.66s-6.36,17.91,6.93,18.86l34.03-5.03-1.57-13.83-20.9,2.61s5.64-13.15,7.54-26.88c.21-1.54.14-2.91-.16-4.14"/>
    <path class="cls-9" d="m396.05,76.37c-2.04-4.13-4.49-6.14-6.93-6.9"/>
    <path class="cls-6" d="m329.95,132.01c-.21,6.46-1.38,13.69-4.3,21.22l-.06.15-12.69-15.31c-6.49-7.82-7.74-18.74-3.2-27.83l13.11-26.24h0c.63,8.89,2.47,21.3,2.47,21.3,0,0,.96,2.07,2.02,5.68l-.11-.37-3.12,8.32c-.91,2.43-.55,5.16.97,7.27,1.17,1.62,2.79,3.75,4.89,6.26"/>
    <path class="cls-9" d="m329.85,134.63c-.37,5.93-1.59,12.44-4.2,19.18l-.06.15.06-.15s-.04.1-.06.15l-11.94,23.88s7.86-.94,65.37,0h12.46l-2.37-56.38.25-.04-12.43,1.84c-13.29-.94-6.93-18.86-6.93-18.86l7.12-30.66s5.99-5.59,11.99-3.71v-1.49c-5.49-2.7-12.18-2.96-12.18-2.96h.13s-30.31-1.74-30.31-1.74c-.62-.04-1.3.6-.18.14,0,0,0,0,0,0l-1.51-.09s-21.34,7.42-22.28,13.08c-.25,1.53-.19,4.33.04,7.62.63,8.89,2.47,21.3,2.47,21.3,0,0,.96,2.07,2.02,5.68,1.39,4.75,2.93,12.17,2.65,21.03"/>
    <path class="cls-9" d="m329.92,132.65c-.02.67-.05,1.35-.1,2.04"/>
    <line class="cls-4" x1="392.59" y1="120.99" x2="390.37" y2="146.35"/>
    <path class="cls-4" d="m390.47,101.36c-.15.8-.71,4.95,3.74,4.37"/>
    <line class="cls-7" x1="410.69" y1="112.92" x2="415" y2="112.92"/>
    <path class="cls-9" d="m334.36,177.73l9.9,10.84,15.6,114.08,31.46-2.83-5.49-122.09c-25.76-.09-41.69-.14-51.53-.18"/>
    <line class="cls-4" x1="334.35" y1="177.67" x2="334.51" y2="177.85"/>
    <line class="cls-4" x1="334.13" y1="177.43" x2="334.35" y2="177.67"/>
    <line class="cls-4" x1="351.83" y1="242.92" x2="351.5" y2="243.98"/>
    <path class="cls-9" d="m385.81,300.45s9.71,10.15,21.36,10.01c0,0,8.46,5.2,0,8.97-8.46,3.77-42.09,1.57-42.09,1.57l-2.28-18.48,14.85,8.52,8.16-10.59Z"/>
    <path class="cls-9" d="m324.8,309.51s6.91,12.23,18.23,14.96c0,0,6.92,7.12-2.21,8.69s-41.18-8.85-41.18-8.85l2.34-18.47,12.3,11.92,10.52-8.26Z"/>
    <path class="cls-9" d="m360.39,302.53l-.38.03-15.6-114.08-9.9-10.84-.2-.09-15.92-.05.11.13c.61,6.25,7.16,70.1-7.94,102.51l-11.56,24.19,31.73,6.13,20.77-66.48"/>
    <line class="cls-9" x1="305.73" y1="305.63" x2="305.14" y2="308.9"/>
    <line class="cls-9" x1="320.99" y1="308.57" x2="320.14" y2="313.18"/>
    <line class="cls-9" x1="367.29" y1="301.98" x2="367.29" y2="305.09"/>
    <path class="cls-9" d="m382.12,300.65c-.13.01.83,3.52.83,3.52"/>
    <path class="cls-4" d="m351.32,50.01l-1.29,8.57"/>
  </g>
  <g id="layer4">
    <path class="cls-4" d="m413.7,34.28l-3.47,4.19s-.34,2.92-6.92,5.44c-1.41.54-2.09,2.14-1.52,3.53l2.16,5.21-1.8,11.21s-.97,6.54,11.11,15.5c0,0,.42.27,1.03.78"/>
    <line class="cls-4" x1="442.67" y1="54.87" x2="442.8" y2="54.67"/>
    <line class="cls-4" x1="442.56" y1="55.05" x2="442.67" y2="54.87"/>
    <path class="cls-4" d="m427.41,62.94s1.17,7.35,7.71,1.82"/>
    <path class="cls-2" d="m445.77,39.12c-4.76,9.72,1.37,18.17,1.37,18.17-1.8-.4-3.3-1.43-4.55-2.84-5.6-6.35-6.08-20.45-6.08-20.45l-4.17,7.88-2.47-11.32-4.39,10.38-2.26-15.51-3.74,8.75-.41-6.39-5.38,6.49.04-.54c-1.02-1.95-5.85-13.03,16.82-12.17,24.85.94,33.66,28.04,33.66,28.04,0,0,4.09,30.31-28.68,27.5,0,0-4.1,2.86.03-12.75l-.46.4c1.11-.94,2.37-2.24,3.81-4.02l3.63-5.69"/>
    <path class="cls-4" d="m409.4,39.32s-.09-.08-.23-.24"/>
    <path class="cls-4" d="m420.32,46.79s-5.94,3.5-7.2-4.79"/>
    <line class="cls-4" x1="434.88" y1="72.82" x2="427.6" y2="87.07"/>
    <path class="cls-4" d="m427.6,87.07s22.9,9.58,5.32,33.02c-2.12,2.83-2.09,6.73.04,9.54,1.8,2.37,5.71,5.11,8.4,11.01.64,1.41-.19,123.14,28.09,175.13"/>
    <rect class="cls-2" x="439.64" y="35.7" width="4.95" height="8.54" transform="translate(-.23 77.36) rotate(-10)"/>
    <path class="cls-4" d="m413.27,79.35s-13.27,19.35-20.34,18.08"/>
    <path class="cls-5" d="m425.49,102.43c-3.98-.79-7.81,1.62-8.56,5.38,0,0,0,.11.01.31.08,1.92-2.85,10.47-3.36,9.24-.59-1.4-19.04-17.34-19.04-17.34,0,0-.02.04-.05.12l.05-.12-3.05-5.88c-.37-.7-1.05-1.21-1.84-1.28-.6-.06-1.04.12-.43,1.05,1.23,1.86,1.68,3.82,1.68,3.82,0,0-8.07-3.51-9.87-2.7s.29,1.55.39,1.57,6.68,2.25,6.68,2.25c0,0-10.55-3.09-9.9-2.17,0,0-1.57.58-.29,1s9.53,3.06,9.53,3.06c0,0-9.4-2.99-10.87-1.34,0,0-.21-.5,0,.71l9.69,2.33s-7.02-1.75-8.59-.34,7.59,2.02,7.59,2.02l27.19,24.96c6.8,6.24,12.06,2.44,13.15-6.73l4.95-12.5-.2.52.2-.52c.68-3.41-1.86-6.79-5.68-7.55"/>
    <path class="cls-4" d="m415.35,106.33c0-4.3,4.56-7.77,10.19-7.77"/>
    <path class="cls-4" d="m433.42,109.08c0-5.82-3.53-10.53-7.89-10.53"/>
    <path class="cls-4" d="m452.16,41.13s40.34,14.87,43.39,84.84c3.05,69.97,54.61,178.69,54.61,178.69,0,0-38.12,43.29-85.32,6.11,0,0-21.11,7.83-32.93,1.14-11.81-6.69-25.46.88-25.46.88"/>
    <path class="cls-4" d="m457.93,65.9s2.95,28.92-16.57,74.74"/>
    <path class="cls-8" d="m416.11,102.91c-7.62-4.52-17.52-1.69-19.71-1.29l5.99,4.68,7.35-.92.1.91.26.3,4.33-.3.91.03c0-1.31.43-2.55,1.18-3.64"/>
    <path class="cls-8" d="m468.7,316.01c-3.89,1.17-21.91,6.07-32.19-.23-11.57-7.09-25.47,0-25.47,0l-.55-1.01c-1.1-1.61-2.97-2.75-2.97-2.75-11.65.14-21.36-10.01-21.36-10.01l-.73-.07,6.24-.56-5.49-122.09h-.75s0-.46,0-.46h6.4l-1.39-33.1.28,2.18,2.22-25.36v-.61s8.9-1.31,8.9-1.31l1.21-.18,9.42,8.65c6.8,6.24,12.06,2.44,13.15-6.73l3.9-9.85h.57c1.84,0,3.33-1.53,3.33-3.43.41.6,2.39,1.53,4.33,3.43l-.22.41c-1.19,2.24-2.71,4.63-4.62,7.17-2.12,2.83-2.09,6.73.04,9.54,1.8,2.37,5.71,5.11,8.4,11.01.64,1.41-.19,123.14,28.09,175.13"/>
  </g>
  <g id="layer5">
    <path class="cls-5" d="m411.08,32.3l-4.26,8.47s-1.45,2.96-1.11,6.01c.28,2.53-1.54,4.83-4.03,5.32-2.16.43-4.1,1.36-4.74,3.24,0,0-6.07,8.2-15.15,8.82l-2.12-.94"/>
    <path class="cls-5" d="m392.59,32.36s2.24,8.65,8.12,5.94"/>
    <path class="cls-1" d="m406.09,42.23s38.91-13.98,3.94-33.72c-32.14-18.14-40.24-2.06-41.34.65l-.14.37c4.01,1.24,5.39,5.67,5.39,5.67,0,0-.54,12.45,35.66,6.61,0,0,3.23,1.97.22,13.01l-3.47,6.9"/>
    <path class="cls-4" d="m368.55,9.54s.04-.14.14-.37"/>
    <path class="cls-4" d="m359.07,43.65s4.56-13.3,5.08-13.38c.05,0,.07-.05.05-.1-.7-1.36-8.52-17.11-.2-20.33,2.45-.95,4.42-.95,5.98-.47"/>
    <path class="cls-4" d="m345.58,62.55c-2.05-1.92,1.5-4.15,1.99-4.44"/>
    <path class="cls-4" d="m347.62,58.07s9,1.14,29.5,6.63"/>
    <path class="cls-4" d="m326.19,153.2s-.04.1-.06.15l-11.94,23.88s7.86-.94,65.37,0h12.46l-2.37-56.38"/>
    <path class="cls-4" d="m327.83,110.95c1.39,4.75,2.93,12.17,2.65,21.03"/>
    <path class="cls-4" d="m389.65,67.94c-5.49-2.7-12.18-2.96-12.18-2.96l-.35-.27c.16.04.33.09.49.13.08.02.07.14-.02.14l-31.08-1.79s-.02,0-.03,0c-.38-.2-.68-.42-.91-.63v.73s-21.33,7.42-22.28,13.08c-.25,1.53-.19,4.33.04,7.62"/>
    <path class="cls-4" d="m396.41,75.39c-.87-3.56-3.61-5.9-6.75-7.45"/>
    <path class="cls-9" d="m389.65,69.43c-6-1.88-11.99,3.71-11.99,3.71l-7.12,30.66s-6.36,17.91,6.93,18.86l34.03-5.03-1.57-13.83-20.9,2.61s5.64-13.15,7.54-26.88c.21-1.54.14-2.91-.16-4.14"/>
    <path class="cls-9" d="m396.59,76.33c-2.04-4.13-4.49-6.14-6.93-6.9"/>
    <path class="cls-6" d="m330.49,131.98c-.21,6.46-1.38,13.69-4.3,21.22l-.06.15-12.69-15.31c-6.49-7.82-7.74-18.74-3.2-27.83l13.11-26.24h0c.63,8.89,2.47,21.3,2.47,21.3,0,0,.96,2.07,2.02,5.68l-.11-.37-3.12,8.32c-.91,2.43-.55,5.16.97,7.27,1.17,1.62,2.79,3.75,4.89,6.26"/>
    <path class="cls-9" d="m330.39,134.6c-.37,5.93-1.59,12.44-4.2,19.18l-.06.15.06-.15s-.04.1-.06.15l-11.94,23.88s7.86-.94,65.37,0h12.46l-2.37-56.38.25-.04-12.43,1.84c-13.29-.94-6.93-18.86-6.93-18.86l7.12-30.66s5.99-5.59,11.99-3.71v-1.49c-5.49-2.7-12.18-2.96-12.18-2.96h.13s-30.31-1.74-30.31-1.74c-.62-.04-1.3.6-.18.14,0,0,0,0,0,0l-1.51-.09s-21.34,7.42-22.28,13.08c-.25,1.53-.19,4.33.04,7.62.63,8.89,2.47,21.3,2.47,21.3,0,0,.96,2.07,2.02,5.68,1.39,4.75,2.93,12.17,2.65,21.03"/>
    <path class="cls-9" d="m330.45,132.61c-.02.67-.05,1.35-.1,2.04"/>
    <line class="cls-4" x1="393.13" y1="120.95" x2="390.91" y2="146.31"/>
    <path class="cls-4" d="m391.01,101.33c-.15.8-.71,4.95,3.74,4.37"/>
    <line class="cls-7" x1="411.23" y1="112.89" x2="415.54" y2="112.89"/>
    <path class="cls-9" d="m334.9,177.69l9.9,10.84,15.6,114.08,31.46-2.83-5.49-122.09c-25.76-.09-41.69-.14-51.53-.18"/>
    <line class="cls-4" x1="334.88" y1="177.64" x2="335.05" y2="177.81"/>
    <line class="cls-4" x1="334.67" y1="177.4" x2="334.88" y2="177.64"/>
    <line class="cls-4" x1="352.36" y1="242.89" x2="352.04" y2="243.94"/>
    <path class="cls-9" d="m386.35,300.41s9.71,10.15,21.36,10.01c0,0,8.46,5.2,0,8.97-8.46,3.77-42.09,1.57-42.09,1.57l-2.28-18.48,14.85,8.52,8.16-10.59Z"/>
    <path class="cls-9" d="m325.34,309.48s6.91,12.23,18.23,14.96c0,0,6.92,7.12-2.21,8.69s-41.18-8.85-41.18-8.85l2.34-18.47,12.3,11.92,10.52-8.26Z"/>
    <path class="cls-9" d="m360.93,302.49l-.38.03-15.6-114.08-9.9-10.84-.2-.09-15.92-.05.11.13c.61,6.25,7.16,70.1-7.94,102.51l-11.56,24.19,31.73,6.13,20.77-66.48"/>
    <line class="cls-9" x1="306.27" y1="305.59" x2="305.68" y2="308.87"/>
    <line class="cls-9" x1="321.53" y1="308.54" x2="320.68" y2="313.14"/>
    <line class="cls-9" x1="367.83" y1="301.95" x2="367.83" y2="305.06"/>
    <path class="cls-9" d="m382.66,300.62c-.13.01.83,3.52.83,3.52"/>
    <path class="cls-4" d="m359.11,43.65c-3.19,8.06-6.93,15.65-6.93,15.65"/>
  </g>
  <g id="layer6">
    <path class="cls-4" d="m399.07,52.65l.87,1.91-1.44,11.26s-.76,6.57,11.6,15.14c0,0,.43.25,1.05.75"/>
    <path class="cls-4" d="m409.09,35.9l-3.33,4.29s-.01.18-.14.49"/>
    <line class="cls-4" x1="438.7" y1="55.56" x2="438.82" y2="55.35"/>
    <line class="cls-4" x1="438.59" y1="55.74" x2="438.7" y2="55.56"/>
    <path class="cls-4" d="m423.71,64.1s1.4,7.31,7.76,1.57"/>
    <path class="cls-2" d="m441.3,39.71c-4.44,9.87,1.95,18.12,1.95,18.12-1.81-.35-3.35-1.33-4.63-2.7-5.8-6.16-6.73-20.25-6.73-20.25l-3.92,8.01-2.83-11.24-4.06,10.52-2.75-15.43-3.46,8.87-.61-6.37-5.17,6.66.02-.54c-1.09-1.92-6.26-12.84,16.42-12.7,24.87.15,34.54,26.95,34.54,26.95,0,0,5.06,30.16-27.79,28.4,0,0-4,2.99-.37-12.75l-.45.42c1.08-.97,2.3-2.32,3.68-4.14l3.44-5.8"/>
    <path class="cls-4" d="m416.1,48.19s-5.82,3.68-7.35-4.56"/>
    <line class="cls-4" x1="431.48" y1="73.74" x2="424.66" y2="88.22"/>
    <path class="cls-4" d="m424.66,88.22s25.63,8.13,8.06,31.58c-2.12,2.83-2.09,6.73.04,9.54,1.8,2.37,5.71,5.11,8.4,11.01.64,1.41-.19,123.14,28.09,175.13"/>
    <rect class="cls-2" x="435.2" y="36.41" width="4.95" height="8.54" transform="translate(.95 90.52) rotate(-11.82)"/>
    <path class="cls-4" d="m410.09,80.96s-12.64,19.77-19.75,18.72"/>
    <path class="cls-5" d="m425.29,102.13c-3.98-.79-7.81,1.62-8.56,5.38,0,0,0,.11.01.31.08,1.92-2.85,10.47-3.36,9.24-.59-1.4-19.04-17.34-19.04-17.34,0,0-.02.04-.05.12l.05-.12-3.05-5.88c-.37-.7-1.05-1.21-1.84-1.28-.6-.06-1.04.12-.43,1.05,1.23,1.86,1.68,3.82,1.68,3.82,0,0-8.07-3.51-9.87-2.7s.29,1.55.39,1.57,6.68,2.25,6.68,2.25c0,0-10.55-3.09-9.9-2.17,0,0-1.57.58-.29,1s9.53,3.06,9.53,3.06c0,0-9.4-2.99-10.87-1.34,0,0-.21-.5,0,.71l9.69,2.33s-7.02-1.75-8.59-.34,7.59,2.02,7.59,2.02l27.19,24.96c6.8,6.24,12.06,2.44,13.15-6.73l4.95-12.5-.2.52.2-.52c.68-3.41-1.86-6.79-5.68-7.55"/>
    <path class="cls-4" d="m415.15,106.03c0-4.3,4.56-7.77,10.19-7.77"/>
    <path class="cls-4" d="m433.22,108.79c0-5.82-3.53-10.53-7.89-10.53"/>
    <path class="cls-4" d="m447.75,41.53s40.8,13.58,46.07,83.42c5.28,69.83,60.27,176.86,60.27,176.86,0,0-36.73,44.48-85.08,8.82,0,0-20.85,8.49-32.87,2.19s-25.42,1.69-25.42,1.69"/>
    <path class="cls-4" d="m457.73,65.6s2.95,28.92-16.57,74.74"/>
    <path class="cls-8" d="m415.9,102.62c-7.62-4.52-17.52-1.69-19.71-1.29l5.99,4.68,7.35-.92.1.91.26.3,4.33-.3.91.03c0-1.31.43-2.55,1.18-3.64"/>
    <path class="cls-8" d="m468.5,315.71c-3.89,1.17-21.91,6.07-32.19-.23-11.57-7.09-25.47,0-25.47,0l-.55-1.01c-1.1-1.61-2.97-2.75-2.97-2.75-11.65.14-21.36-10.01-21.36-10.01l-.73-.07,6.24-.56-5.49-122.09h-.75s0-.46,0-.46h6.4l-1.39-33.1.28,2.18,2.22-25.36v-.61s8.9-1.31,8.9-1.31l1.21-.18,9.42,8.65c6.8,6.24,12.06,2.44,13.15-6.73l3.9-9.85h.57c1.84,0,3.33-1.53,3.33-3.43.41.6,2.39,1.53,4.33,3.43l-.22.41c-1.19,2.24-2.71,4.63-4.62,7.17-2.12,2.83-2.09,6.73.04,9.54,1.8,2.37,5.71,5.11,8.4,11.01.64,1.41-.19,123.14,28.09,175.13"/>
  </g>
</svg>